<?xml version="1.0" standalone="no"?>
<!DOCTYPE svg PUBLIC "-//W3C//DTD SVG 20010904//EN"
 "http://www.w3.org/TR/2001/REC-SVG-20010904/DTD/svg10.dtd">
<svg version="1.0" xmlns="http://www.w3.org/2000/svg"
 width="100.000000pt" height="100.000000pt" viewBox="0 0 100.000000 100.000000"
 preserveAspectRatio="xMidYMid meet">
<metadata>
Created by potrace 1.14, written by Peter Selinger 2001-2017
</metadata>
<g transform="translate(0.000000,100.000000) scale(0.100000,-0.100000)"
fill="#000000" stroke="none">
<path d="M95 703 c-91 -21 -95 -23 -95 -52 0 -16 6 -34 14 -40 7 -6 24 -44 37
-84 29 -91 58 -121 131 -136 129 -27 219 24 268 154 13 33 20 40 43 40 24 0
32 -9 65 -75 32 -64 43 -77 84 -98 87 -44 220 -24 262 41 9 12 24 52 36 89 11
37 25 70 30 73 6 3 10 19 10 35 0 25 -5 31 -37 40 -69 21 -211 24 -304 6 -107
-20 -182 -20 -282 -1 -74 14 -217 18 -262 8z m282 -43 c53 -24 62 -53 38 -118
-36 -93 -117 -141 -214 -127 -62 9 -105 53 -120 123 -15 74 -14 86 12 109 29
27 44 30 152 32 69 0 100 -4 132 -19z m493 2 c31 -15 35 -22 38 -59 8 -107
-40 -177 -129 -188 -90 -11 -163 29 -200 110 -35 76 -20 125 47 145 55 16 206
12 244 -8z"/>
<path d="M250 525 c-15 -18 -10 -45 13 -59 34 -22 73 27 47 59 -16 19 -44 19
-60 0z"/>
<path d="M670 525 c-26 -32 13 -81 48 -59 22 14 27 41 12 59 -16 19 -44 19
-60 0z"/>
</g>
</svg>
